<svg width="1130" height="719" viewBox="0 0 1130 719" fill="none" xmlns="http://www.w3.org/2000/svg">
<line x1="208" y1="15" x2="303" y2="15" stroke="black" stroke-width="30" stroke-linecap="round"/>
<line x1="806" y1="20" x2="908" y2="20" stroke="black" stroke-width="30" stroke-linecap="round"/>
<line x1="338" y1="15" x2="339" y2="15" stroke="black" stroke-width="30" stroke-linecap="round"/>
<line x1="943" y1="20" x2="947" y2="20" stroke="black" stroke-width="30" stroke-linecap="round"/>
<line x1="135" y1="51" x2="149" y2="51" stroke="black" stroke-width="30" stroke-linecap="round"/>
<line x1="729" y1="56" x2="746" y2="56" stroke="black" stroke-width="30" stroke-linecap="round"/>
<line x1="348" y1="51" x2="402" y2="51" stroke="black" stroke-width="30" stroke-linecap="round"/>
<line x1="954" y1="56" x2="1012" y2="56" stroke="black" stroke-width="30" stroke-linecap="round"/>
<line x1="182" y1="51" x2="313" y2="51" stroke="black" stroke-width="30" stroke-linecap="round"/>
<line x1="779" y1="56" x2="919" y2="56" stroke="black" stroke-width="30" stroke-linecap="round"/>
<line x1="93" y1="87" x2="182" y2="87" stroke="black" stroke-width="30" stroke-linecap="round"/>
<line x1="685" y1="92" x2="781" y2="92" stroke="black" stroke-width="30" stroke-linecap="round"/>
<line x1="45" y1="159" x2="105" y2="159" stroke="black" stroke-width="30" stroke-linecap="round"/>
<line x1="648" y1="164" x2="706" y2="164" stroke="black" stroke-width="30" stroke-linecap="round"/>
<line x1="33" y1="195" x2="140" y2="195" stroke="black" stroke-width="30" stroke-linecap="round"/>
<line x1="643" y1="200" x2="746" y2="200" stroke="black" stroke-width="30" stroke-linecap="round"/>
<line x1="87" y1="231" x2="131" y2="231" stroke="black" stroke-width="30" stroke-linecap="round"/>
<line x1="707" y1="236" x2="755" y2="236" stroke="black" stroke-width="30" stroke-linecap="round"/>
<line x1="18" y1="267" x2="126" y2="267" stroke="black" stroke-width="30" stroke-linecap="round"/>
<line x1="660" y1="273" x2="789" y2="273" stroke="black" stroke-width="30" stroke-linecap="round"/>
<line x1="15" y1="303" x2="126" y2="303" stroke="black" stroke-width="30" stroke-linecap="round"/>
<line x1="685" y1="308" x2="860" y2="308" stroke="black" stroke-width="30" stroke-linecap="round"/>
<line x1="15" y1="339" x2="84" y2="339" stroke="black" stroke-width="30" stroke-linecap="round"/>
<line x1="851" y1="344" x2="967" y2="344" stroke="black" stroke-width="30" stroke-linecap="round"/>
<line x1="117" y1="339" x2="126" y2="339" stroke="black" stroke-width="30" stroke-linecap="round"/>
<line x1="722" y1="344" x2="734" y2="344" stroke="black" stroke-width="30" stroke-linecap="round"/>
<line x1="770" y1="344" x2="816" y2="344" stroke="black" stroke-width="30" stroke-linecap="round"/>
<line x1="23" y1="231" x2="52" y2="231" stroke="black" stroke-width="30" stroke-linecap="round"/>
<line x1="23" y1="231" x2="52" y2="231" stroke="black" stroke-width="30" stroke-linecap="round"/>
<line x1="648" y1="236" x2="675" y2="236" stroke="black" stroke-width="30" stroke-linecap="round"/>
<line x1="65" y1="123" x2="186" y2="123" stroke="black" stroke-width="30" stroke-linecap="round"/>
<line x1="656" y1="128" x2="785" y2="128" stroke="black" stroke-width="30" stroke-linecap="round"/>
<line x1="220" y1="87" x2="370" y2="87" stroke="black" stroke-width="30" stroke-linecap="round"/>
<line x1="819" y1="92" x2="979" y2="92" stroke="black" stroke-width="30" stroke-linecap="round"/>
<line x1="142" y1="159" x2="156" y2="159" stroke="black" stroke-width="30" stroke-linecap="round"/>
<line x1="737" y1="164" x2="753" y2="164" stroke="black" stroke-width="30" stroke-linecap="round"/>
<line x1="410" y1="87" x2="444" y2="87" stroke="black" stroke-width="30" stroke-linecap="round"/>
<line x1="1019" y1="92" x2="1057" y2="92" stroke="black" stroke-width="30" stroke-linecap="round"/>
<line x1="379" y1="159" x2="487" y2="159" stroke="black" stroke-width="30" stroke-linecap="round"/>
<line x1="987" y1="164" x2="1102" y2="164" stroke="black" stroke-width="30" stroke-linecap="round"/>
<line x1="393" y1="195" x2="415" y2="195" stroke="black" stroke-width="30" stroke-linecap="round"/>
<line x1="1001" y1="200" x2="1026" y2="200" stroke="black" stroke-width="30" stroke-linecap="round"/>
<line x1="449" y1="195" x2="499" y2="195" stroke="black" stroke-width="30" stroke-linecap="round"/>
<line x1="1060" y1="200" x2="1115" y2="200" stroke="black" stroke-width="30" stroke-linecap="round"/>
<line x1="397" y1="231" x2="505" y2="231" stroke="black" stroke-width="30" stroke-linecap="round"/>
<line x1="351" y1="123" x2="419" y2="123" stroke="black" stroke-width="30" stroke-linecap="round"/>
<line x1="957" y1="128" x2="1030" y2="128" stroke="black" stroke-width="30" stroke-linecap="round"/>
<line x1="452" y1="123" x2="471" y2="123" stroke="black" stroke-width="30" stroke-linecap="round"/>
<line x1="1064" y1="128" x2="1085" y2="128" stroke="black" stroke-width="30" stroke-linecap="round"/>
<line x1="952" y1="704" x2="850" y2="704" stroke="black" stroke-width="30" stroke-linecap="round"/>
<line x1="815" y1="704" x2="811" y2="704" stroke="black" stroke-width="30" stroke-linecap="round"/>
<line x1="1029" y1="668" x2="1012" y2="668" stroke="black" stroke-width="30" stroke-linecap="round"/>
<line x1="804" y1="668" x2="746" y2="668" stroke="black" stroke-width="30" stroke-linecap="round"/>
<line x1="979" y1="668" x2="839" y2="668" stroke="black" stroke-width="30" stroke-linecap="round"/>
<line x1="1073" y1="632" x2="977" y2="632" stroke="black" stroke-width="30" stroke-linecap="round"/>
<line x1="1110" y1="560" x2="1052" y2="560" stroke="black" stroke-width="30" stroke-linecap="round"/>
<line x1="1115" y1="524" x2="1012" y2="524" stroke="black" stroke-width="30" stroke-linecap="round"/>
<line x1="1051" y1="488" x2="1003" y2="488" stroke="black" stroke-width="30" stroke-linecap="round"/>
<line x1="1098" y1="451" x2="969" y2="451" stroke="black" stroke-width="30" stroke-linecap="round"/>
<line x1="1073" y1="416" x2="898" y2="416" stroke="black" stroke-width="30" stroke-linecap="round"/>
<line x1="907" y1="380" x2="791" y2="380" stroke="black" stroke-width="30" stroke-linecap="round"/>
<line x1="1036" y1="380" x2="1024" y2="380" stroke="black" stroke-width="30" stroke-linecap="round"/>
<line x1="988" y1="380" x2="942" y2="380" stroke="black" stroke-width="30" stroke-linecap="round"/>
<line x1="1110" y1="488" x2="1083" y2="488" stroke="black" stroke-width="30" stroke-linecap="round"/>
<line x1="1102" y1="596" x2="973" y2="596" stroke="black" stroke-width="30" stroke-linecap="round"/>
<line x1="939" y1="632" x2="779" y2="632" stroke="black" stroke-width="30" stroke-linecap="round"/>
<line x1="1021" y1="560" x2="1005" y2="560" stroke="black" stroke-width="30" stroke-linecap="round"/>
<line x1="739" y1="632" x2="701" y2="632" stroke="black" stroke-width="30" stroke-linecap="round"/>
<line x1="771" y1="560" x2="656" y2="560" stroke="black" stroke-width="30" stroke-linecap="round"/>
<line x1="757" y1="524" x2="732" y2="524" stroke="black" stroke-width="30" stroke-linecap="round"/>
<line x1="698" y1="524" x2="643" y2="524" stroke="black" stroke-width="30" stroke-linecap="round"/>
<line x1="801" y1="596" x2="728" y2="596" stroke="black" stroke-width="30" stroke-linecap="round"/>
<line x1="694" y1="596" x2="673" y2="596" stroke="black" stroke-width="30" stroke-linecap="round"/>
<line x1="15" y1="-15" x2="110" y2="-15" transform="matrix(1 0 0 -1 193 684)" stroke="black" stroke-width="30" stroke-linecap="round"/>
<line x1="15" y1="-15" x2="16" y2="-15" transform="matrix(1 0 0 -1 323 684)" stroke="black" stroke-width="30" stroke-linecap="round"/>
<line x1="15" y1="-15" x2="29" y2="-15" transform="matrix(1 -8.74228e-08 -8.74228e-08 -1 120 648)" stroke="black" stroke-width="30" stroke-linecap="round"/>
<line x1="15" y1="-15" x2="69" y2="-15" transform="matrix(1 -8.74228e-08 -8.74228e-08 -1 333 648)" stroke="black" stroke-width="30" stroke-linecap="round"/>
<line x1="15" y1="-15" x2="146" y2="-15" transform="matrix(1 0 0 -1 167 648)" stroke="black" stroke-width="30" stroke-linecap="round"/>
<line x1="15" y1="-15" x2="104" y2="-15" transform="matrix(1 -8.74228e-08 -8.74228e-08 -1 78 612)" stroke="black" stroke-width="30" stroke-linecap="round"/>
<line x1="15" y1="-15" x2="75" y2="-15" transform="matrix(1 -8.74228e-08 -8.74228e-08 -1 30 540)" stroke="black" stroke-width="30" stroke-linecap="round"/>
<line x1="15" y1="-15" x2="122" y2="-15" transform="matrix(1 0 0 -1 18 504)" stroke="black" stroke-width="30" stroke-linecap="round"/>
<line x1="15" y1="-15" x2="59" y2="-15" transform="matrix(1 -8.74228e-08 -8.74228e-08 -1 72 468)" stroke="black" stroke-width="30" stroke-linecap="round"/>
<line x1="15" y1="-15" x2="123" y2="-15" transform="matrix(1 -8.74228e-08 -8.74228e-08 -1 3 432)" stroke="black" stroke-width="30" stroke-linecap="round"/>
<line x1="15" y1="-15" x2="126" y2="-15" transform="matrix(1 -1.00132e-07 -7.63268e-08 -1 0 396)" stroke="black" stroke-width="30" stroke-linecap="round"/>
<line x1="15" y1="-15" x2="84" y2="-15" transform="matrix(1 -1.00132e-07 -7.63268e-08 -1 0 360)" stroke="black" stroke-width="30" stroke-linecap="round"/>
<line x1="15" y1="-15" x2="24" y2="-15" transform="matrix(1 8.74228e-08 8.74228e-08 -1 102 360)" stroke="black" stroke-width="30" stroke-linecap="round"/>
<line x1="15" y1="-15" x2="44" y2="-15" transform="matrix(1 -8.74228e-08 -8.74228e-08 -1 8 468)" stroke="black" stroke-width="30" stroke-linecap="round"/>
<line x1="15" y1="-15" x2="44" y2="-15" transform="matrix(1 -8.74228e-08 -8.74228e-08 -1 8 468)" stroke="black" stroke-width="30" stroke-linecap="round"/>
<line x1="15" y1="-15" x2="136" y2="-15" transform="matrix(1 -8.74228e-08 -8.74228e-08 -1 50 576)" stroke="black" stroke-width="30" stroke-linecap="round"/>
<line x1="15" y1="-15" x2="165" y2="-15" transform="matrix(1 0 0 -1 205 612)" stroke="black" stroke-width="30" stroke-linecap="round"/>
<line x1="15" y1="-15" x2="29" y2="-15" transform="matrix(1 -8.74228e-08 -8.74228e-08 -1 127 540)" stroke="black" stroke-width="30" stroke-linecap="round"/>
<line x1="15" y1="-15" x2="49" y2="-15" transform="matrix(1 -8.74228e-08 -8.74228e-08 -1 395 612)" stroke="black" stroke-width="30" stroke-linecap="round"/>
<line x1="15" y1="-15" x2="123" y2="-15" transform="matrix(1 -8.74228e-08 -8.74228e-08 -1 364 540)" stroke="black" stroke-width="30" stroke-linecap="round"/>
<line x1="15" y1="-15" x2="37" y2="-15" transform="matrix(1 -8.74228e-08 -8.74228e-08 -1 378 504)" stroke="black" stroke-width="30" stroke-linecap="round"/>
<line x1="15" y1="-15" x2="65" y2="-15" transform="matrix(1 8.74228e-08 8.74228e-08 -1 434 504)" stroke="black" stroke-width="30" stroke-linecap="round"/>
<line x1="15" y1="-15" x2="123" y2="-15" transform="matrix(1 -8.74228e-08 -8.74228e-08 -1 382 468)" stroke="black" stroke-width="30" stroke-linecap="round"/>
<line x1="15" y1="-15" x2="83" y2="-15" transform="matrix(1 -8.74228e-08 -8.74228e-08 -1 336 576)" stroke="black" stroke-width="30" stroke-linecap="round"/>
<line x1="15" y1="-15" x2="34" y2="-15" transform="matrix(1 8.74228e-08 8.74228e-08 -1 437 576)" stroke="black" stroke-width="30" stroke-linecap="round"/>
</svg>
