<svg width="283" height="103" viewBox="0 0 283 103" fill="none" xmlns="http://www.w3.org/2000/svg">
<path d="M282.506 86.8613C281.019 80.3169 278.937 71.9877 277.152 67.8232C276.854 66.9307 276.557 66.0383 275.962 64.8485C272.987 56.8168 267.335 41.9432 253.652 41.9432H202.784C207.841 46.7028 210.816 52.6522 212.898 57.7092H223.31L225.094 94.298C225.392 98.1651 228.367 101.437 231.936 101.735C235.506 102.032 239.076 102.33 242.943 102.33C246.512 102.33 250.082 102.032 253.949 101.735C257.816 101.437 260.791 97.8677 260.791 94.0006L261.386 70.5004C261.683 71.6903 262.278 72.8802 262.576 73.7726C263.766 76.7473 265.55 83.5891 267.038 90.1334C268.228 94.893 273.285 97.5702 277.747 95.7854H278.044C281.614 94.298 283.399 90.4309 282.506 86.8613Z" fill="#8A8F98" fill-opacity="0.2"/>
<path d="M243.239 37.4813C253.589 37.4813 261.979 29.0908 261.979 18.7406C261.979 8.39047 253.589 0 243.239 0C232.889 0 224.498 8.39047 224.498 18.7406C224.498 29.0908 232.889 37.4813 243.239 37.4813Z" fill="#8A8F98" fill-opacity="0.2"/>
<path d="M148.346 41.6459H67.1367C72.1937 46.4054 75.1684 52.6523 77.2507 57.4118H86.1748L89.7445 93.7032C89.7445 97.5703 92.7192 100.843 96.5863 101.437C100.156 101.735 103.726 102.032 107.295 102.032C110.865 102.032 114.732 101.735 118.302 101.437C122.169 101.14 125.143 97.5703 125.143 93.7032L128.416 57.4118H137.935C140.017 52.6523 143.289 46.4054 148.346 41.6459Z" fill="#8A8F98" fill-opacity="0.2"/>
<path d="M107.592 37.4813C117.942 37.4813 126.333 29.0908 126.333 18.7406C126.333 8.39047 117.942 0 107.592 0C97.242 0 88.8516 8.39047 88.8516 18.7406C88.8516 29.0908 97.242 37.4813 107.592 37.4813Z" fill="#8A8F98" fill-opacity="0.2"/>
<path d="M73.9788 67.8232C73.6813 66.9307 73.3839 66.0383 72.7889 64.8485C69.8142 56.8168 64.1623 41.9432 50.4786 41.9432H29.0608C15.0796 41.9432 9.72517 56.8168 6.75047 64.8485C6.453 66.0383 5.85806 66.9307 5.56059 67.8232C3.77576 71.9877 1.69347 80.3169 0.206118 86.8613C-0.686293 90.7284 1.396 94.298 4.96565 95.7854C4.96565 95.7854 4.96565 95.7854 5.26312 95.7854C9.72517 97.5702 14.7822 94.893 15.9721 90.1334C17.4594 83.5891 19.2442 76.4498 20.4341 73.7726C20.7316 72.8802 21.3265 71.6903 21.624 70.5004L22.2189 94.0006C22.2189 97.8677 25.1936 101.14 29.0608 101.735C32.6304 102.032 36.2 102.33 39.7697 102.33C43.3393 102.33 47.2065 102.032 50.4786 101.735C54.3457 101.437 57.3204 97.8677 57.3204 94.0006L57.9154 70.5004C58.2129 71.6903 58.8078 72.8802 59.1053 73.7726C60.2952 76.7473 62.08 83.5891 63.5673 90.1334C64.7572 94.893 69.8142 97.5702 74.2763 95.7854C74.2763 95.7854 74.2763 95.7854 74.5737 95.7854C78.1434 94.298 80.2257 90.4309 79.3333 86.8613C77.8459 80.0195 75.7636 71.9877 73.9788 67.8232Z" fill="#8A8F98" fill-opacity="0.2"/>
<path d="M39.7699 37.4813C50.1201 37.4813 58.5106 29.0908 58.5106 18.7406C58.5106 8.39047 50.1201 0 39.7699 0C29.4198 0 21.0293 8.39047 21.0293 18.7406C21.0293 29.0908 29.4198 37.4813 39.7699 37.4813Z" fill="#8A8F98" fill-opacity="0.2"/>
<path d="M209.625 67.8232C209.328 66.9307 209.03 66.0383 208.435 64.8485C205.461 56.8168 199.809 41.9432 186.125 41.9432H185.53H165.302H164.707C150.726 41.9432 145.372 56.8168 142.397 64.8485C142.099 66.0383 141.505 66.9307 141.207 67.8232C139.422 71.9877 137.34 80.3169 135.853 86.8613C134.96 90.7284 137.042 94.298 140.612 95.7854C140.612 95.7854 140.612 95.7854 140.91 95.7854C145.372 97.5702 150.429 94.893 151.619 90.1334C153.106 83.5891 154.891 76.4498 156.081 73.7726C156.378 72.8802 156.973 71.6903 157.27 70.5004L157.865 94.0006C157.865 97.8677 160.84 101.14 164.707 101.735C168.277 102.032 171.847 102.33 175.416 102.33C178.986 102.33 182.853 102.032 186.125 101.735C189.992 101.437 192.967 97.8677 192.967 94.0006L193.562 70.5004C193.859 71.6903 194.454 72.8802 194.752 73.7726C195.942 76.7473 197.726 83.5891 199.214 90.1334C200.404 94.893 205.461 97.5702 209.923 95.7854C209.923 95.7854 209.923 95.7854 210.22 95.7854C213.79 94.298 215.872 90.4309 214.98 86.8613C213.492 80.0195 211.41 71.9877 209.625 67.8232Z" fill="#8A8F98" fill-opacity="0.2"/>
<path d="M175.417 37.4813C185.768 37.4813 194.158 29.0908 194.158 18.7406C194.158 8.39047 185.768 0 175.417 0C165.067 0 156.677 8.39047 156.677 18.7406C156.677 29.0908 165.067 37.4813 175.417 37.4813Z" fill="#8A8F98" fill-opacity="0.2"/>
</svg>
